<?xml version="1.0" standalone="no"?>
<!DOCTYPE svg PUBLIC "-//W3C//DTD SVG 20010904//EN"
 "http://www.w3.org/TR/2001/REC-SVG-20010904/DTD/svg10.dtd">
<svg version="1.0" xmlns="http://www.w3.org/2000/svg"
 width="707.000000pt" height="769.000000pt" viewBox="0 0 707.000000 769.000000"
 preserveAspectRatio="xMidYMid meet">

<g transform="translate(0.000000,769.000000) scale(0.100000,-0.100000)"
fill="#000000" stroke="none">
<path d="M3850 7180 c0 -5 7 -10 15 -10 8 0 15 5 15 10 0 6 -7 10 -15 10 -8 0
-15 -4 -15 -10z"/>
<path d="M3826 7064 c-137 -19 -181 -28 -182 -39 -5 -36 -19 -54 -43 -58 -14
-2 -10 -3 9 -1 19 2 42 4 50 5 55 2 246 32 268 41 15 6 36 13 47 15 26 5 39
19 26 27 -6 4 -11 1 -12 -6 -1 -7 -5 -2 -9 12 l-8 25 -7 -22 c-4 -13 -11 -20
-16 -18 -4 3 -6 12 -2 20 6 17 11 17 -121 -1z"/>
<path d="M4180 6178 c-38 -20 -63 -80 -56 -133 9 -55 37 -92 80 -104 78 -21
126 18 126 103 0 58 -14 91 -50 117 -35 25 -71 31 -100 17z m75 -24 c41 -16
60 -127 29 -172 -34 -49 -108 -17 -124 53 -20 88 25 145 95 119z"/>
<path d="M4692 6134 c3 -17 21 -21 26 -6 1 5 -4 12 -13 16 -11 4 -15 1 -13
-10z"/>
<path d="M4585 6130 c-3 -5 -3 -15 0 -20 3 -6 -4 -14 -17 -20 -23 -9 -23 -9
-2 -15 18 -6 22 -17 27 -77 6 -74 18 -98 48 -98 24 0 24 5 -1 30 -26 26 -30
140 -5 140 8 0 15 5 15 10 0 6 -9 10 -20 10 -13 0 -20 7 -20 19 0 23 -16 36
-25 21z"/>
<path d="M4781 6103 c1 -95 17 -206 30 -214 18 -11 152 -12 145 0 -3 4 -32 11
-65 15 -68 8 -62 -5 -78 150 -5 49 -13 81 -20 84 -9 2 -13 -8 -12 -35z"/>
<path d="M4385 5990 c7 -104 18 -150 34 -135 3 3 4 24 2 45 -2 38 10 53 24 30
3 -5 19 -10 35 -10 43 0 64 37 57 97 -7 66 -39 93 -108 90 l-51 -2 7 -115z
m105 80 c29 -29 28 -105 -1 -121 -45 -24 -79 17 -79 95 0 46 45 61 80 26z"/>
<path d="M5170 6095 c0 -2 18 -30 40 -61 22 -32 40 -62 40 -67 0 -5 -16 -32
-35 -58 -19 -27 -35 -54 -35 -60 0 -20 25 -3 55 39 17 22 33 41 36 41 4 1 14
-24 24 -54 21 -69 41 -85 31 -27 -3 23 -14 57 -23 76 -16 34 -15 35 16 86 29
47 33 70 11 70 -5 0 -19 -18 -31 -40 -13 -22 -26 -40 -30 -40 -4 0 -21 23 -39
50 -18 28 -38 50 -46 50 -8 0 -14 -2 -14 -5z"/>
<path d="M4696 6018 c8 -100 14 -130 27 -125 7 2 11 15 10 28 -11 131 -16 159
-28 159 -10 0 -12 -15 -9 -62z"/>
<path d="M4976 6008 c10 -102 14 -118 39 -134 15 -10 36 -14 52 -11 15 3 35 1
44 -4 22 -11 28 19 21 111 -3 49 -9 70 -18 70 -9 0 -14 -20 -16 -71 -3 -64 -5
-73 -26 -80 -36 -13 -62 20 -62 79 0 61 -9 92 -26 92 -10 0 -12 -13 -8 -52z"/>
<path d="M5170 4790 c0 -112 2 -201 5 -198 3 2 12 52 20 110 8 58 18 113 21
123 6 13 4 16 -5 10 -20 -12 -28 10 -30 83 -1 37 -4 69 -7 71 -2 2 -4 -87 -4
-199z"/>
<path d="M1775 4923 c3 -32 7 -81 10 -110 4 -35 2 -53 -6 -59 -7 -4 -10 -3 -6
3 4 6 0 16 -8 23 -19 16 -19 8 4 -81 18 -70 47 -139 57 -139 12 0 -6 258 -20
295 -8 22 -15 57 -16 77 0 20 -4 39 -9 43 -6 3 -8 -18 -6 -52z"/>
</g>
</svg>
